
<global>
amp_veltrack=0
</global>

<group>
ampeg_release=0.2
group_label=P
loop_mode=loop_continuous
xf_cccurve=gain
xfin_hicc1=25
xfout_hicc1=50
xfout_locc1=26

<region>
hivel=127
key=D#3
loop_end=186130
loop_mode=loop_continuous
loop_start=21399
loop_xfade=21399
lovel=0
offset=488
sample=Toms_Small_Roll_P_D4.opus
volume=8
</region>

<region>
hivel=127
key=D3
loop_end=177290
loop_mode=loop_continuous
loop_start=20383
loop_xfade=20383
lovel=0
offset=485
sample=Toms_Medium_Roll_P_D4.opus
volume=8
</region>

<region>
hivel=127
key=C#3
loop_end=204739
loop_mode=loop_continuous
loop_start=27116
loop_xfade=27116
lovel=0
offset=497
sample=Toms_Large_Roll_P_D4.opus
volume=8
</region>
</group>

<group>
ampeg_release=0.2
group_label=MP
loop_mode=loop_continuous
xf_cccurve=gain
xfin_hicc1=50
xfin_locc1=26
xfout_hicc1=76
xfout_locc1=51

<region>
hivel=127
key=D#3
loop_end=182524
loop_mode=loop_continuous
loop_start=20985
loop_xfade=20985
lovel=0
offset=497
sample=Toms_Small_Roll_MP_D4.opus
volume=8
</region>

<region>
hivel=127
key=D3
loop_end=197971
loop_mode=loop_continuous
loop_start=22761
loop_xfade=22761
lovel=0
offset=483
sample=Toms_Medium_Roll_MP_D4.opus
volume=8
</region>

<region>
hivel=127
key=C#3
loop_end=190270
loop_mode=loop_continuous
loop_start=21875
loop_xfade=21875
lovel=0
offset=546
sample=Toms_Large_Roll_MP_D4.opus
volume=8
</region>
</group>

<group>
ampeg_release=0.2
group_label=MF
loop_mode=loop_continuous
xf_cccurve=gain
xfin_hicc1=76
xfin_locc1=51
xfout_hicc1=101
xfout_locc1=77

<region>
hivel=127
key=D#3
loop_end=198009
loop_mode=loop_continuous
loop_start=22765
loop_xfade=22765
lovel=0
offset=486
sample=Toms_Small_Roll_MF_D4.opus
</region>

<region>
hivel=127
key=D3
loop_end=206557
loop_mode=loop_continuous
loop_start=23748
loop_xfade=23748
lovel=0
offset=480
sample=Toms_Medium_Roll_MF_D4.opus
</region>

<region>
hivel=127
key=C#3
loop_end=209744
loop_mode=loop_continuous
loop_start=24991
loop_xfade=24991
lovel=0
offset=498
sample=Toms_Large_Roll_MF_D4.opus
</region>
</group>

<group>
ampeg_release=0.2
group_label=F
loop_mode=loop_continuous
xf_cccurve=gain
xfin_hicc1=101
xfin_locc1=77
xfout_hicc1=126
xfout_locc1=102

<region>
hivel=127
key=D#3
loop_end=199341
loop_mode=loop_continuous
loop_start=22918
loop_xfade=22918
lovel=0
offset=485
sample=Toms_Small_Roll_F_D4.opus
</region>

<region>
hivel=127
key=D3
loop_end=213511
loop_mode=loop_continuous
loop_start=24547
loop_xfade=24547
lovel=0
offset=489
sample=Toms_Medium_Roll_F_D4.opus
</region>

<region>
hivel=127
key=C#3
loop_end=199068
loop_mode=loop_continuous
loop_start=24518
loop_xfade=24518
lovel=0
offset=481
sample=Toms_Large_Roll_F_D4.opus
</region>
</group>

<group>
ampeg_release=0.2
group_label=FF
loop_mode=loop_continuous
xf_cccurve=gain
xfin_hicc1=127
xfin_locc1=102
xfout_hicc1=127
xfout_locc1=127

<region>
hivel=127
key=D#3
loop_end=189630
loop_mode=loop_continuous
loop_start=21802
loop_xfade=21802
lovel=0
offset=483
sample=Toms_Small_Roll_FF_D4.opus
</region>

<region>
hivel=127
key=D3
loop_end=216786
loop_mode=loop_continuous
loop_start=24924
loop_xfade=24924
lovel=0
offset=483
sample=Toms_Medium_Roll_FF_D4.opus
</region>

<region>
hivel=127
key=C#3
loop_end=248288
loop_mode=loop_continuous
loop_start=28546
loop_xfade=28546
lovel=0
offset=482
sample=Toms_Large_Roll_FF_D4.opus
</region>
</group>

<group>
ampeg_attack=0.01
ampeg_release=0.85
group_label=P_Rel
trigger=release
xf_cccurve=gain
xfin_hicc1=25
xfout_hicc1=50
xfout_locc1=26

<region>
hivel=127
key=D#3
lovel=0
offset=219973
sample=Toms_Small_Roll_P_D4.opus
volume=8
</region>

<region>
hivel=127
key=D3
lovel=0
offset=196414
sample=Toms_Medium_Roll_P_D4.opus
volume=8
</region>

<region>
hivel=127
key=C#3
lovel=0
offset=210819
sample=Toms_Large_Roll_P_D4.opus
volume=8
</region>
</group>

<group>
ampeg_attack=0.01
ampeg_release=0.85
group_label=MP_Rel
trigger=release
xf_cccurve=gain
xfin_hicc1=50
xfin_locc1=26
xfout_hicc1=76
xfout_locc1=51

<region>
hivel=127
key=D#3
lovel=0
offset=217508
sample=Toms_Small_Roll_MP_D4.opus
volume=8
</region>

<region>
hivel=127
key=D3
lovel=0
offset=226407
sample=Toms_Medium_Roll_MP_D4.opus
volume=8
</region>

<region>
hivel=127
key=C#3
lovel=0
offset=214104
sample=Toms_Large_Roll_MP_D4.opus
volume=8
</region>
</group>

<group>
ampeg_attack=0.01
ampeg_release=0.85
group_label=MF_Rel
trigger=release
xf_cccurve=gain
xfin_hicc1=76
xfin_locc1=51
xfout_hicc1=101
xfout_locc1=77

<region>
hivel=127
key=D#3
lovel=0
offset=221952
sample=Toms_Small_Roll_MF_D4.opus
</region>

<region>
hivel=127
key=D3
lovel=0
offset=230872
sample=Toms_Medium_Roll_MF_D4.opus
</region>

<region>
hivel=127
key=C#3
lovel=0
offset=220282
sample=Toms_Large_Roll_MF_D4.opus
</region>
</group>

<group>
ampeg_attack=0.01
ampeg_release=0.85
group_label=F_Rel
trigger=release
xf_cccurve=gain
xfin_hicc1=101
xfin_locc1=77
xfout_hicc1=126
xfout_locc1=102

<region>
hivel=127
key=D#3
lovel=0
offset=225319
sample=Toms_Small_Roll_F_D4.opus
</region>

<region>
hivel=127
key=D3
lovel=0
offset=229411
sample=Toms_Medium_Roll_F_D4.opus
</region>

<region>
hivel=127
key=C#3
lovel=0
offset=214091
sample=Toms_Large_Roll_F_D4.opus
</region>
</group>

<group>
ampeg_attack=0.01
ampeg_release=0.85
group_label=FF_Rel
trigger=release
xf_cccurve=gain
xfin_hicc1=127
xfin_locc1=102
xfout_hicc1=127
xfout_locc1=127

<region>
hivel=127
key=D#3
lovel=0
offset=213071
sample=Toms_Small_Roll_FF_D4.opus
</region>

<region>
hivel=127
key=D3
lovel=0
offset=222778
sample=Toms_Medium_Roll_FF_D4.opus
</region>

<region>
hivel=127
key=C#3
lovel=0
offset=269097
sample=Toms_Large_Roll_FF_D4.opus
</region>
</group>
